# File produced by Open Asset Import Library (http://www.assimp.sf.net)
# (assimp v3.1.267422042)

mtllib Carpet.mtl

# vertex positions
v 500.000000 0.000000 500.000000
v -500.000000 0.000000 500.000000
v 500.000000 0.000000 -500.000000
v -500.000000 0.000000 -500.000000
v 490.508636 2.458771 -490.508636
v -490.508636 2.458771 -490.508636
v -490.508636 2.458771 490.508636
v 490.508636 2.458771 490.508636
v 500.000000 2.458771 500.000000
v -500.000000 2.458771 500.000000
v 500.000000 2.458771 -500.000000
v -500.000000 2.458771 -500.000000
v 496.000031 5.260347 496.000031
v -494.508667 5.260347 494.508667
v -496.000031 5.260347 496.000031
v 494.508667 5.260347 494.508667
v 496.000031 5.260347 -496.000031
v 494.508667 5.260347 -494.508667
v -496.000031 5.260347 -496.000031
v -494.508667 5.260347 -494.508667
v -500.000000 3.871571 500.000000
v 500.000000 3.871571 500.000000
v 500.000000 3.871571 -500.000000
v -500.000000 3.871571 -500.000000
v 490.508636 3.871571 490.508636
v -490.508636 3.871571 490.508636
v -490.508636 3.871571 -490.508636
v 490.508636 3.871571 -490.508636
v -499.000000 4.913154 499.000000
v 499.000000 4.913154 499.000000
v 491.508667 4.913154 491.508667
v -491.508667 4.913154 491.508667
v 499.000000 4.913154 -499.000000
v 491.508667 4.913154 -491.508667
v -499.000000 4.913154 -499.000000
v -491.508667 4.913154 -491.508667

# UV coordinates
vt 0.000000 0.000000
vt 1.000000 0.000000
vt 0.000000 1.000000
vt 1.000000 1.000000

# vertex normals
vn 0.000000 -1.000000 -0.000000
vn 0.000000 1.000000 0.000000
vn 0.000000 -0.000000 1.000000
vn 1.000000 0.000000 0.000000
vn 0.000000 0.000000 -1.000000
vn -1.000000 0.000000 0.000000
vn 0.042617 0.998182 0.042617
vn 0.014251 0.999797 -0.014251
vn -0.042617 0.998182 0.042617
vn -0.014251 0.999797 -0.014251
vn 0.042617 0.998182 -0.042617
vn -0.014251 0.999797 0.014251
vn -0.042617 0.998182 -0.042617
vn 0.014251 0.999797 0.014251
vn 0.000000 0.383875 0.923385
vn 0.923385 0.383875 0.000000
vn 0.000000 0.383875 -0.923385
vn -0.923385 0.383875 0.000000
vn 0.000000 0.454404 -0.890796
vn 0.890796 0.454404 0.000000
vn 0.000000 0.454404 0.890796
vn -0.890796 0.454404 0.000000
vn -0.057673 0.996668 0.057673
vn 0.057673 0.996668 0.057673
vn -0.057673 0.996668 -0.057673
vn 0.057673 0.996668 -0.057673
vn 0.000000 0.692561 0.721359
vn 0.721359 0.692561 0.000000
vn 0.000000 0.692561 -0.721359
vn -0.721359 0.692561 0.000000
vn 0.000000 0.692561 -0.721359
vn 0.721359 0.692561 0.000000
vn 0.000000 0.692561 0.721359
vn -0.721359 0.692561 0.000000

# Mesh
g Box126
usemtl DefaultMaterial
f 1/1/1 2/2/1 3/3/1
f 2/2/1 4/4/1 3/3/1
f 5/4/2 6/3/2 7/1/2
f 5/4/2 7/1/2 8/2/2
f 9/4/3 10/3/3 2/1/3
f 9/4/3 2/1/3 1/2/3
f 11/4/4 9/3/4 1/1/4
f 11/4/4 1/1/4 3/2/4
f 12/4/5 11/3/5 3/1/5
f 12/4/5 3/1/5 4/2/5
f 10/4/6 12/3/6 4/1/6
f 10/4/6 4/1/6 2/2/6
f 13/2/7 14/1/8 15/1/9
f 14/1/8 13/2/7 16/2/10
f 16/2/10 17/4/11 18/4/12
f 13/2/7 17/4/11 16/2/10
f 18/4/12 19/3/13 20/3/14
f 17/4/11 19/3/13 18/4/12
f 19/3/13 15/1/9 20/3/14
f 20/3/14 15/1/9 14/1/8
f 21/1/15 9/2/3 22/2/15
f 9/2/3 21/1/15 10/1/3
f 22/2/16 11/4/4 23/4/16
f 11/4/4 22/2/16 9/2/4
f 23/4/17 12/3/5 24/3/17
f 12/3/5 23/4/17 11/4/5
f 24/3/18 10/1/6 21/1/18
f 10/1/6 24/3/18 12/3/6
f 25/2/19 7/1/5 26/1/19
f 7/1/5 25/2/19 8/2/5
f 26/1/20 6/3/4 27/3/20
f 6/3/4 26/1/20 7/1/4
f 27/3/21 5/4/3 28/4/21
f 5/4/3 27/3/21 6/3/3
f 28/4/22 8/2/6 25/2/22
f 8/2/6 28/4/22 5/4/6
f 13/2/7 15/1/9 29/1/23
f 13/2/7 29/1/23 30/2/24
f 14/1/8 16/2/10 31/2/25
f 14/1/8 31/2/25 32/1/26
f 30/2/24 33/4/26 17/4/11
f 30/2/24 17/4/11 13/2/7
f 16/2/10 18/4/12 34/4/23
f 16/2/10 34/4/23 31/2/25
f 33/4/26 35/3/25 19/3/13
f 33/4/26 19/3/13 17/4/11
f 18/4/12 20/3/14 36/3/24
f 18/4/12 36/3/24 34/4/23
f 35/3/25 15/1/9 19/3/13
f 35/3/25 29/1/23 15/1/9
f 20/3/14 14/1/8 32/1/26
f 20/3/14 32/1/26 36/3/24
f 21/1/15 22/2/15 30/2/27
f 21/1/15 30/2/27 29/1/27
f 22/2/16 23/4/16 33/4/28
f 22/2/16 33/4/28 30/2/28
f 23/4/17 24/3/17 35/3/29
f 23/4/17 35/3/29 33/4/29
f 24/3/18 21/1/18 29/1/30
f 24/3/18 29/1/30 35/3/30
f 32/1/31 31/2/31 25/2/19
f 32/1/31 25/2/19 26/1/19
f 36/3/32 32/1/32 26/1/20
f 36/3/32 26/1/20 27/3/20
f 34/4/33 36/3/33 27/3/21
f 34/4/33 27/3/21 28/4/21
f 31/2/34 34/4/34 28/4/22
f 31/2/34 28/4/22 25/2/22
